<svg width="30" height="30" viewBox="0 0 100 100" fill="none" xmlns="http://www.w3.org/2000/svg">
<g id="github-sq-2" >
<path id="github-sq-2_2" fill-rule="evenodd" clip-rule="evenodd" d="M100 70.4337C94.5225 83.8231 83.823 94.5224 70.4337 100H92C96.4183 100 100 96.4183 100 92V70.4337ZM29.5663 100C16.1769 94.5224 5.47754 83.8231 0 70.4337V92C0 96.4183 3.58173 100 8 100H29.5663ZM100 29.5663V8C100 3.58173 96.4183 0 92 0H70.4337C83.823 5.47757 94.5225 16.1769 100 29.5663ZM29.5663 0H8C3.58173 0 0 3.58173 0 8V29.5663C5.47754 16.1769 16.1769 5.47757 29.5663 0Z" fill="#DEDEDE"/>
<path id="github-mark" fill-rule="evenodd" clip-rule="evenodd" d="M49.5368 6C24.9091 6 5 26.0559 5 50.8677C5 70.7012 17.7565 87.4898 35.453 93.4318C37.6656 93.8785 38.476 92.4664 38.476 91.2785C38.476 90.2383 38.4031 86.673 38.4031 82.9581C26.014 85.6328 23.4341 77.6095 23.4341 77.6095C21.4431 72.4096 18.493 71.0731 18.493 71.0731C14.4381 68.3246 18.7884 68.3246 18.7884 68.3246C23.2864 68.6218 25.6466 72.9301 25.6466 72.9301C29.6277 79.7637 36.0429 77.8329 38.6237 76.6441C38.992 73.7469 40.1725 71.7414 41.426 70.6273C31.5449 69.5872 21.1486 65.7246 21.1486 48.4902C21.1486 43.5875 22.9172 39.5763 25.7195 36.4567C25.2774 35.3427 23.7285 30.7362 26.1626 24.5708C26.1626 24.5708 29.9231 23.3821 38.4022 29.1764C42.0324 28.1943 45.7761 27.6946 49.5368 27.6904C53.2973 27.6904 57.1307 28.211 60.6706 29.1764C69.1506 23.3821 72.911 24.5708 72.911 24.5708C75.3451 30.7362 73.7953 35.3427 73.3532 36.4567C76.2294 39.5763 77.925 43.5875 77.925 48.4902C77.925 65.7246 67.5288 69.5124 57.5738 70.6273C59.1965 72.0385 60.5967 74.7124 60.5967 78.9469C60.5967 84.9637 60.5238 89.7926 60.5238 91.2776C60.5238 92.4664 61.3351 93.8785 63.5468 93.4327C81.2433 87.4889 93.9998 70.7012 93.9998 50.8677C94.0727 26.0559 74.0907 6 49.5368 6Z" fill="#DEDEDE"/>
</g>
</svg>
