<svg width="30" height="30" viewBox="0 0 30 30" fill="none" xmlns="http://www.w3.org/2000/svg">
<path fill-rule="evenodd" clip-rule="evenodd" d="M8 0C3.58172 0 0 3.58172 0 8V22C0 26.4183 3.58172 30 8 30H22C26.4183 30 30 26.4183 30 22V8C30 3.58172 26.4183 0 22 0H8ZM18.9 11.7C18.9 13.4658 18.2367 15.0768 17.1456 16.2972L18.9576 18.1092L19.3819 17.6849L24.6852 22.9882C25.1538 23.4568 25.1538 24.2166 24.6852 24.6853C24.2165 25.1539 23.4567 25.1539 22.9881 24.6853L17.6848 19.382L18.1091 18.9577L16.271 17.1196C15.0962 18.0467 13.6127 18.6 12 18.6C8.18924 18.6 5.1 15.5108 5.1 11.7C5.1 7.88924 8.18924 4.8 12 4.8C15.8108 4.8 18.9 7.88924 18.9 11.7ZM17.0999 11.7C17.0999 14.5166 14.8166 16.8 11.9999 16.8C9.18325 16.8 6.8999 14.5166 6.8999 11.7C6.8999 8.88334 9.18325 6.6 11.9999 6.6C14.8166 6.6 17.0999 8.88334 17.0999 11.7Z" fill="#D9D9D9"/>
</svg>
